<?xml version="1.0" standalone="no"?>
<!DOCTYPE svg PUBLIC "-//W3C//DTD SVG 20010904//EN"
 "http://www.w3.org/TR/2001/REC-SVG-20010904/DTD/svg10.dtd">
<svg version="1.0" xmlns="http://www.w3.org/2000/svg"
 width="880.000000pt" height="880.000000pt" viewBox="0 0 880.000000 880.000000"
 preserveAspectRatio="xMidYMid meet">
<metadata>
Created by potrace 1.11, written by Peter Selinger 2001-2013
</metadata>
<g transform="translate(0.000000,880.000000) scale(0.100000,-0.100000)"
fill="#000000" stroke="none">
<path d="M2165 8259 c-22 -4 -60 -10 -85 -13 -25 -3 -56 -8 -70 -11 -14 -3
-47 -10 -75 -15 -251 -49 -603 -191 -860 -347 -82 -50 -214 -141 -241 -167 -7
-6 -31 -27 -55 -45 -59 -47 -214 -202 -275 -276 -245 -297 -398 -635 -464
-1020 -28 -164 -34 -237 -34 -430 0 -228 18 -415 59 -605 9 -41 19 -86 21 -98
20 -102 112 -394 153 -487 5 -11 26 -60 46 -110 55 -131 167 -352 253 -495 67
-112 208 -327 222 -340 3 -3 24 -30 45 -60 43 -59 195 -246 260 -320 64 -71
368 -374 514 -510 73 -69 152 -143 176 -165 23 -22 86 -80 139 -130 54 -49
121 -112 150 -140 29 -27 92 -86 141 -130 49 -44 98 -89 110 -100 11 -11 65
-60 120 -110 55 -49 120 -108 145 -131 47 -43 208 -187 324 -289 38 -33 74
-64 80 -70 6 -5 58 -50 116 -100 58 -49 107 -92 110 -96 5 -5 417 -346 450
-372 8 -7 58 -46 110 -88 291 -230 622 -449 680 -449 16 0 151 68 172 87 10 9
18 12 18 8 0 -4 8 -1 18 7 9 9 62 46 117 83 55 38 112 78 126 89 15 12 39 30
55 41 50 35 315 245 428 337 153 127 116 96 366 308 29 25 58 50 64 55 6 6 45
39 86 75 41 36 77 67 80 70 3 3 39 34 80 69 41 36 80 70 85 75 6 6 48 45 95
86 47 41 87 77 90 80 3 3 52 48 110 100 172 156 192 174 214 195 12 11 78 71
146 134 69 63 134 124 146 135 11 12 74 71 139 131 65 61 137 128 160 150 23
22 113 108 200 190 327 311 451 445 627 680 152 204 284 417 398 644 61 122
160 343 160 357 0 3 6 20 14 37 34 76 145 428 160 511 1 6 6 26 10 44 9 37 19
25 -144 172 -52 47 -100 90 -106 95 -6 6 -48 44 -94 85 -46 41 -111 100 -144
131 -34 31 -81 73 -105 95 -25 21 -59 53 -76 69 -27 26 -142 129 -195 175 -10
8 -59 53 -110 100 -51 47 -100 92 -110 100 -9 8 -57 51 -105 95 -49 44 -98 89
-111 100 -12 11 -59 54 -104 95 -46 41 -91 82 -100 90 -44 39 -185 167 -204
185 -12 11 -89 81 -171 155 -144 129 -215 193 -239 215 -6 6 -81 73 -166 150
-85 77 -160 144 -166 150 -46 42 -183 167 -200 182 -25 21 -191 171 -214 193
-142 134 -190 171 -212 165 -99 -29 -441 -239 -608 -371 -92 -74 -343 -320
-403 -396 -21 -26 -43 -53 -50 -60 -23 -24 -113 -152 -169 -241 -49 -76 -57
-85 -63 -66 -15 47 -212 319 -314 434 -127 142 -313 316 -436 406 -33 24 -62
46 -65 50 -12 14 -222 139 -295 176 -204 103 -367 154 -665 209 -51 9 -438 12
-485 3z"/>
</g>
</svg>
